HIERARCHY
ROOT pelvis
{
	OFFSET 0.000000 0.946482 -0.000000
	CHANNELS 6 Xposition Yposition Zposition Xrotation Yrotation Zrotation
	JOINT spine
	{
		OFFSET 0.000000 0.000000 0.000000
		CHANNELS 6 Xposition Yposition Zposition Xrotation Yrotation Zrotation
		JOINT spine.001
		{
			OFFSET 0.000000 0.282854 0.014824
			CHANNELS 3 Xrotation Yrotation Zrotation
			JOINT neck
			{
				OFFSET 0.000000 0.281131 -0.034519
				CHANNELS 6 Xposition Yposition Zposition Xrotation Yrotation Zrotation
				JOINT face
				{
					OFFSET 0.000000 0.216495 -0.003779
					CHANNELS 6 Xposition Yposition Zposition Xrotation Yrotation Zrotation
					End Site
					{
						OFFSET 0.000000 -0.009112 0.031188
					}
				}
			}
			JOINT shoulder.L
			{
				OFFSET 0.000000 0.281131 -0.034519
				CHANNELS 6 Xposition Yposition Zposition Yrotation Xrotation Zrotation
				JOINT upper_arm.L
				{
					OFFSET 0.181840 0.000000 0.000000
					CHANNELS 6 Xposition Yposition Zposition Xrotation Yrotation Zrotation
					JOINT forearm.L
					{
						OFFSET 0.301621 0.001119 -0.000135
						CHANNELS 6 Xposition Yposition Zposition Xrotation Yrotation Zrotation
						End Site
						{
							OFFSET 0.295879 -0.001544 0.005041
						}
					}
				}
			}
			JOINT shoulder.R
			{
				OFFSET 0.000000 0.281131 -0.034519
				CHANNELS 6 Xposition Yposition Zposition Yrotation Xrotation Zrotation
				JOINT upper_arm.R
				{
					OFFSET -0.181840 0.000000 0.000000
					CHANNELS 6 Xposition Yposition Zposition Xrotation Yrotation Zrotation
					JOINT forearm.R
					{
						OFFSET -0.299418 0.001119 -0.000135
						CHANNELS 6 Xposition Yposition Zposition Xrotation Yrotation Zrotation
						End Site
						{
							OFFSET -0.290716 -0.001543 0.004951
						}
					}
				}
			}
		}
	}
	JOINT pelvis.L
	{
		OFFSET 0.000000 0.000000 0.000000
		CHANNELS 6 Xposition Yposition Zposition Yrotation Xrotation Zrotation
		End Site
		{
			OFFSET 0.101646 0.000000 0.000000
		}
	}
	JOINT pelvis.R
	{
		OFFSET 0.000000 0.000000 0.000000
		CHANNELS 6 Xposition Yposition Zposition Yrotation Xrotation Zrotation
		End Site
		{
			OFFSET -0.101646 0.000000 0.000000
		}
	}
	JOINT thigh.L
	{
		OFFSET 0.101646 0.000000 0.000000
		CHANNELS 6 Xposition Yposition Zposition Xrotation Yrotation Zrotation
		JOINT shin.L
		{
			OFFSET 0.022393 -0.427281 0.000000
			CHANNELS 6 Xposition Yposition Zposition Xrotation Yrotation Zrotation
			JOINT foot.L
			{
				OFFSET 0.022450 -0.428364 0.000000
				CHANNELS 6 Xposition Yposition Zposition Xrotation Yrotation Zrotation
				End Site
				{
					OFFSET 0.019133 -0.081917 0.195080
				}
			}
		}
	}
	JOINT thigh.R
	{
		OFFSET -0.101646 0.000000 0.000000
		CHANNELS 6 Xposition Yposition Zposition Xrotation Yrotation Zrotation
		JOINT shin.R
		{
			OFFSET -0.021811 -0.416178 0.000000
			CHANNELS 6 Xposition Yposition Zposition Xrotation Yrotation Zrotation
			JOINT foot.R
			{
				OFFSET -0.023542 -0.449215 0.000000
				CHANNELS 6 Xposition Yposition Zposition Xrotation Yrotation Zrotation
				End Site
				{
					OFFSET -0.019950 -0.085416 0.203411
				}
			}
		}
	}
}
MOTION
Frames: 11
Frame Time: 0.041667
0.065020 -0.014316 0.049066 0.000001 -10.312811 0.000005 -0.000000 -0.000000 0.000000 -6.274256 0.599833 -5.574276 10.010427 3.107048 -0.381855 0.000000 0.281131 -0.034519 17.941428 6.224124 -2.445943 -0.000000 0.216495 -0.003779 3.065408 0.000004 0.000005 0.000000 0.281130 -0.034519 0.083877 -0.000501 0.683190 0.181840 -0.000000 0.000000 6.025321 8.733473 -69.891960 0.301621 0.001119 -0.000135 -22.152361 -40.158203 -57.721813 0.000000 0.281131 -0.034519 0.077163 -0.000421 0.628233 -0.181839 -0.000000 -0.000000 7.962633 -11.389041 70.500256 -0.299418 0.001119 -0.000135 -20.818108 42.837174 51.233635 -0.000000 0.000000 -0.000000 0.000021 0.000001 -5.477373 -0.000000 -0.000000 -0.000000 0.000005 -0.000002 -5.477407 0.101182 -0.009702 -0.000000 6.666318 -0.064951 -7.115052 0.022393 -0.427281 0.000000 4.905251 0.367376 2.561086 0.022450 -0.428364 0.000000 -14.296581 4.582055 4.108103 -0.101182 0.009702 -0.000000 1.092880 -0.061343 -0.425204 -0.021811 -0.416178 0.000000 6.032549 -0.608758 -5.514156 -0.023542 -0.449215 0.000000 -6.287231 -4.569745 -2.842151 
0.064645 -0.015764 0.051528 0.000001 -10.977362 0.000005 -0.000000 -0.000000 0.000000 -6.758021 0.615021 -5.497240 10.010938 3.192227 -0.392354 0.000000 0.281131 -0.034519 18.734294 7.200046 -2.629235 0.000000 0.216495 -0.003779 2.625123 -0.000000 0.000001 -0.000000 0.281131 -0.034518 0.096005 -0.000655 0.781985 0.181840 -0.000000 0.000000 6.279003 9.015582 -70.387087 0.301621 0.001119 -0.000135 -21.495589 -39.545914 -57.078262 -0.000000 0.281131 -0.034518 0.089228 -0.000568 0.727070 -0.181839 0.000000 -0.000000 7.574353 -10.863021 70.374417 -0.299418 0.001119 -0.000135 -20.516794 42.836477 50.565926 0.000000 -0.000000 0.000000 -0.000027 -0.000002 -5.527832 -0.000000 0.000000 0.000000 0.000002 0.000000 -5.527868 0.101173 -0.009792 0.000000 7.296276 -0.074661 -7.170822 0.022393 -0.427281 0.000000 3.901179 0.289200 2.475797 0.022450 -0.428364 0.000000 -13.590179 5.323109 4.409219 -0.101173 0.009792 0.000000 1.768551 -0.101809 -0.588795 -0.021811 -0.416178 0.000000 5.082590 -0.497610 -5.175879 -0.023542 -0.449215 0.000000 -6.347964 -4.247589 -2.695813 
0.064377 -0.016962 0.053498 0.000001 -11.573060 0.000005 -0.000000 0.000000 0.000000 -7.133758 0.624527 -5.421287 10.012057 3.356886 -0.412686 -0.000000 0.281131 -0.034519 19.257350 7.929621 -2.774495 0.000000 0.216495 -0.003779 2.342897 -0.000000 0.000001 -0.000000 0.281131 -0.034519 0.104755 -0.000780 0.853322 0.181840 0.000000 0.000000 6.513883 9.281851 -70.786004 0.301621 0.001119 -0.000135 -21.012872 -39.028951 -56.681920 -0.000000 0.281131 -0.034519 0.098043 -0.000685 0.798365 -0.181839 0.000000 0.000000 7.251165 -10.426665 70.251105 -0.299418 0.001119 -0.000135 -20.386503 42.957481 50.130976 -0.000000 0.000000 0.000000 0.000108 0.000005 -5.633298 -0.000000 -0.000000 0.000000 -0.000002 -0.000000 -5.633327 0.101155 -0.009978 0.000000 7.796216 -0.083988 -7.232303 0.022393 -0.427281 0.000000 3.019676 0.221857 2.401814 0.022450 -0.428364 0.000000 -13.110245 5.949876 4.675787 -0.101155 0.009978 0.000000 2.189723 -0.128521 -0.716849 -0.021811 -0.416178 0.000000 4.490654 -0.430002 -4.933702 -0.023542 -0.449215 0.000000 -6.515002 -3.898824 -2.551511 
0.064209 -0.017795 0.054951 0.000000 -12.041629 0.000005 -0.000000 -0.000000 -0.000000 -7.388314 0.629114 -5.356379 10.013699 3.575485 -0.439596 0.000000 0.281131 -0.034519 19.466340 8.348015 -2.868649 -0.000000 0.216495 -0.003779 2.246254 -0.000004 0.000001 0.000000 0.281131 -0.034518 0.111304 -0.000880 0.906714 0.181840 0.000000 0.000000 6.749264 9.568038 -71.050776 0.301621 0.001119 -0.000135 -20.692731 -38.570840 -56.575136 0.000000 0.281131 -0.034518 0.104543 -0.000777 0.851837 -0.181839 0.000000 -0.000000 7.056137 -10.169217 70.140169 -0.299418 0.001119 -0.000135 -20.418716 43.050491 50.091511 -0.000000 0.000000 -0.000000 0.000033 0.000002 -5.748757 -0.000000 0.000000 -0.000000 0.000002 0.000000 -5.748729 0.101135 -0.010182 0.000000 8.140149 -0.091595 -7.287108 0.022393 -0.427281 0.000000 2.379433 0.173587 2.343884 0.022450 -0.428364 0.000000 -12.873601 6.421682 4.894692 -0.101135 0.010181 -0.000000 2.353899 -0.139705 -0.792124 -0.021811 -0.416178 0.000000 4.280130 -0.405244 -4.812318 -0.023542 -0.449215 0.000000 -6.790552 -3.547485 -2.420010 
0.064097 -0.018268 0.056082 0.000000 -12.349853 0.000005 -0.000000 -0.000000 0.000000 -7.564510 0.631131 -5.303226 10.015242 3.760834 -0.462422 0.000000 0.281131 -0.034519 19.491376 8.544422 -2.937310 -0.000000 0.216495 -0.003779 2.262542 -0.000000 -0.000001 0.000000 0.281131 -0.034519 0.117464 -0.000982 0.956642 0.181840 0.000000 0.000000 6.980202 9.865255 -71.203575 0.301621 0.001119 -0.000135 -20.400293 -38.098075 -56.551982 0.000000 0.281131 -0.034519 0.110721 -0.000873 0.901723 -0.181839 0.000000 0.000000 7.002172 -10.099487 70.099939 -0.299418 0.001119 -0.000135 -20.399704 42.793020 50.357492 -0.000000 0.000000 -0.000000 0.000077 0.000004 -5.787230 -0.000000 0.000000 -0.000000 0.000000 0.000000 -5.787230 0.101128 -0.010249 -0.000000 8.363128 -0.097157 -7.328683 0.022393 -0.427281 0.000000 2.033122 0.147733 2.310423 0.022450 -0.428364 0.000000 -12.738883 6.766668 5.060239 -0.101128 0.010249 -0.000000 2.410135 -0.143883 -0.831650 -0.021811 -0.416178 0.000000 4.255192 -0.400741 -4.755246 -0.023542 -0.449215 0.000000 -7.073675 -3.244324 -2.311197 
0.064141 -0.018467 0.056869 0.000000 -12.511167 0.000005 -0.000000 -0.000000 0.000000 -7.680923 0.630352 -5.251224 10.016149 3.874623 -0.476461 -0.000000 0.281131 -0.034518 19.428296 8.637878 -2.993579 0.000000 0.216495 -0.003779 2.323931 0.000006 -0.000002 -0.000000 0.281131 -0.034519 0.121781 -0.001056 0.991865 0.181840 -0.000000 0.000000 7.139053 10.072024 -71.290086 0.301621 0.001119 -0.000135 -20.023504 -37.627669 -56.316894 -0.000000 0.281131 -0.034519 0.115039 -0.000942 0.936910 -0.181839 0.000000 -0.000000 6.995625 -10.076856 70.171451 -0.299418 0.001119 -0.000135 -20.086301 42.076199 50.522383 -0.000000 0.000000 -0.000000 0.000063 0.000003 -5.743308 -0.000000 0.000000 -0.000000 0.000003 0.000000 -5.743308 0.101136 -0.010172 0.000000 8.490314 -0.101782 -7.371155 0.022393 -0.427281 0.000000 1.925032 0.139809 2.306740 0.022450 -0.428364 0.000000 -12.604582 7.022824 5.176017 -0.101136 0.010172 -0.000000 2.439873 -0.146261 -0.860130 -0.021811 -0.416178 0.000000 4.279621 -0.401412 -4.712016 -0.023542 -0.449215 0.000000 -7.262392 -3.012215 -2.222837 
0.064586 -0.018551 0.057138 0.000000 -12.593623 0.000005 -0.000000 -0.000000 0.000000 -7.730464 0.624280 -5.181813 10.016752 3.949878 -0.485743 0.000000 0.281131 -0.034519 19.261294 8.732994 -3.026342 -0.000000 0.216495 -0.003779 2.420034 -0.000005 0.000002 0.000000 0.281131 -0.034518 0.120224 -0.001028 0.979798 0.181840 -0.000000 0.000000 7.160421 10.089411 -71.358060 0.301621 0.001119 -0.000135 -19.512916 -37.200871 -55.676963 0.000000 0.281131 -0.034518 0.113538 -0.000915 0.924882 -0.181839 0.000000 -0.000000 6.883404 -9.890078 70.316162 -0.299418 0.001119 -0.000135 -19.405394 41.115362 50.140487 0.000000 -0.000000 0.000000 -0.000132 -0.000006 -5.699034 0.000000 -0.000000 0.000000 -0.000002 -0.000000 -5.699001 0.101144 -0.010094 0.000000 8.529794 -0.108064 -7.448808 0.022393 -0.427281 0.000000 1.945763 0.141940 2.343220 0.022450 -0.428364 0.000000 -12.459799 7.215308 5.254215 -0.101144 0.010094 -0.000000 2.414702 -0.145642 -0.902006 -0.021811 -0.416178 0.000000 4.349590 -0.406129 -4.663438 -0.023542 -0.449215 0.000000 -7.345208 -2.824213 -2.141161 
0.065558 -0.018677 0.056860 0.000000 -12.670729 0.000005 -0.000000 -0.000000 0.000000 -7.718956 0.612109 -5.085187 10.017266 4.011995 -0.493424 0.000000 0.281131 -0.034519 18.950811 8.967370 -3.035832 -0.000000 0.216495 -0.003779 2.567663 -0.000002 0.000002 0.000000 0.281131 -0.034518 0.110392 -0.000870 0.899639 0.181839 0.000000 0.000000 7.032212 9.889208 -71.474139 0.301621 0.001119 -0.000135 -18.824841 -36.784318 -54.550423 0.000000 0.281131 -0.034518 0.103667 -0.000767 0.844725 -0.181839 0.000000 -0.000000 6.580537 -9.428302 70.488577 -0.299418 0.001119 -0.000135 -18.391058 40.065435 49.040116 0.000000 -0.000000 0.000000 -0.000056 -0.000003 -5.718073 -0.000000 0.000000 0.000000 0.000002 0.000000 -5.718108 0.101140 -0.010127 -0.000000 8.499864 -0.117201 -7.577018 0.022393 -0.427281 0.000000 2.014989 0.148374 2.421313 0.022450 -0.428364 -0.000000 -12.295683 7.365783 5.305162 -0.101140 0.010127 -0.000000 2.301359 -0.140355 -0.978982 -0.021811 -0.416178 0.000000 4.488348 -0.416417 -4.595995 -0.023542 -0.449215 0.000000 -7.376800 -2.648038 -2.058206 
0.066855 -0.018898 0.056183 0.000000 -12.753326 0.000005 -0.000000 -0.000000 0.000000 -7.666874 0.596681 -4.976284 10.017292 4.025245 -0.495098 -0.000000 0.281131 -0.034518 18.520749 9.475393 -3.047045 -0.000000 0.216495 -0.003779 2.764866 0.000005 -0.000001 -0.000000 0.281131 -0.034518 0.094016 -0.000628 0.765471 0.181840 -0.000000 0.000000 6.771270 9.484249 -71.708804 0.301621 0.001119 -0.000135 -17.952773 -36.328308 -52.962018 -0.000000 0.281131 -0.034518 0.087209 -0.000542 0.710561 -0.181839 0.000000 -0.000000 6.132611 -8.747574 70.760896 -0.299418 0.001119 -0.000135 -17.057632 38.786701 47.341441 0.000000 -0.000000 0.000000 -0.000161 -0.000008 -5.775841 0.000000 -0.000000 0.000000 -0.000001 -0.000000 -5.775833 0.101130 -0.010230 0.000000 8.425961 -0.126692 -7.719705 0.022393 -0.427281 0.000000 2.109526 0.157019 2.512726 0.022450 -0.428364 0.000000 -12.083715 7.488892 5.331560 -0.101130 0.010229 0.000000 2.122874 -0.131564 -1.091853 -0.021811 -0.416178 0.000000 4.679897 -0.430340 -4.501726 -0.023542 -0.449215 0.000000 -7.394850 -2.497096 -1.985849 
0.068078 -0.019169 0.055295 0.000000 -12.803997 0.000005 0.000000 -0.000000 0.000000 -7.592408 0.582323 -4.883416 10.016788 3.950745 -0.485851 -0.000000 0.281131 -0.034518 18.054792 10.241240 -3.080612 0.000000 0.216495 -0.003779 2.981083 -0.000002 -0.000001 -0.000000 0.281131 -0.034519 0.076025 -0.000411 0.619369 0.181839 -0.000000 0.000000 6.415241 8.930493 -72.068871 0.301621 0.001119 -0.000135 -17.018185 -35.863609 -51.152584 -0.000000 0.281131 -0.034519 0.069314 -0.000340 0.564449 -0.181839 -0.000000 -0.000000 5.651734 -7.990352 71.281466 -0.299418 0.001119 -0.000135 -15.536397 37.245906 45.309812 -0.000000 0.000000 0.000000 0.000038 0.000002 -5.796201 -0.000000 0.000000 0.000000 0.000003 0.000000 -5.796230 0.101126 -0.010265 -0.000000 8.325773 -0.132564 -7.821048 0.022393 -0.427281 0.000000 2.232393 0.167413 2.576032 0.022450 -0.428364 0.000000 -11.844385 7.592892 5.341846 -0.101126 0.010265 0.000000 1.932358 -0.121840 -1.215108 -0.021811 -0.416178 0.000000 4.882450 -0.444310 -4.392879 -0.023542 -0.449215 0.000000 -7.396300 -2.408882 -1.942341 
0.068958 -0.019434 0.054342 0.000000 -12.824381 0.000005 -0.000000 -0.000000 0.000000 -7.510568 0.571254 -4.820005 10.015785 3.833099 -0.471337 0.000000 0.281131 -0.034519 17.634591 11.059127 -3.135018 -0.000000 0.216495 -0.003779 3.183165 0.000005 0.000004 -0.000000 0.281131 -0.034518 0.061823 -0.000271 0.503113 0.181840 -0.000000 0.000000 6.039345 8.347412 -72.487247 0.301621 0.001119 -0.000135 -16.217640 -35.488270 -49.508107 -0.000000 0.281131 -0.034518 0.055007 -0.000215 0.448242 -0.181839 0.000000 -0.000000 5.225953 -7.285574 72.085154 -0.299418 0.001119 -0.000135 -14.148347 35.860009 43.222199 -0.000000 -0.000000 -0.000000 0.000014 -0.000002 -5.733035 0.000000 -0.000000 -0.000000 -0.000006 -0.000001 -5.732998 0.101138 -0.010154 -0.000000 8.216152 -0.133842 -7.863336 0.022393 -0.427281 0.000000 2.370314 0.178062 2.590507 0.022450 -0.428364 0.000000 -11.650731 7.699025 5.361654 -0.101138 0.010154 0.000000 1.766216 -0.112996 -1.320286 -0.021811 -0.416178 0.000000 5.057704 -0.455880 -4.294183 -0.023542 -0.449215 0.000000 -7.375397 -2.372758 -1.921736 
